<svg width="800" height="800" viewBox="0 0 800 800" fill="none" xmlns="http://www.w3.org/2000/svg">
<path d="M319.674 636.534L321.174 599.165C310.937 595.755 298.626 593.437 282.751 593.437C270.627 593.437 260.597 594.796 251.958 596.951L245.369 636.772C255.011 631.899 265.587 628.608 282.751 628.608C299.642 628.608 310.155 631.79 319.674 636.534Z" fill="#00A0E3"/>
<path d="M165.521 628.608C141.084 628.608 129.993 621.954 115.951 613.529C100.256 604.112 82.4661 593.437 48.2866 593.437C38.574 593.437 30.7009 601.31 30.7009 611.023C30.7009 620.733 38.574 628.608 48.2866 628.608C72.7236 628.608 83.8149 635.263 97.8553 643.688C113.551 653.103 131.342 663.78 165.521 663.78C182.638 663.78 195.642 661.101 206.332 657.247L213.398 614.54C200.132 622.478 188.967 628.608 165.521 628.608Z" fill="#00A0E3"/>
<path d="M399.986 628.608C378.661 628.608 367.5 623.54 355.672 616.65L354.122 655.257C365.738 660.146 380.068 663.779 399.986 663.779C420.776 663.779 435.484 659.821 447.365 654.609C448.679 637.923 450.457 622.61 452.826 611.575C451.725 612.229 450.634 612.881 449.558 613.527C435.516 621.954 424.425 628.608 399.986 628.608Z" fill="#00A0E3"/>
<path d="M634.47 663.78C668.651 663.78 686.442 653.107 702.139 643.688C716.181 635.263 727.273 628.608 751.713 628.608C761.426 628.608 769.299 620.733 769.299 611.023C769.299 601.31 761.426 593.437 751.713 593.437C717.532 593.437 699.741 604.11 684.044 613.529C670.001 621.954 658.91 628.608 634.47 628.608C619.342 628.608 609.331 626.055 600.566 622.114C602.254 633.098 603.563 646.437 604.562 660.481C613.001 662.507 622.756 663.78 634.47 663.78Z" fill="#00A0E3"/>
<path d="M228.536 367.753C228.536 431.936 237.157 461.047 256.591 473.547C258.987 474.229 261.14 475.399 262.971 476.92C272.333 480.915 283.752 482.171 297.402 482.171C311.154 482.171 322.635 480.892 332.037 476.83C333.809 475.388 335.863 474.287 338.107 473.617C356.41 461.926 365.154 435.581 366.167 379.279C325.741 364.706 290.2 338.348 267.091 304.819C261.58 296.823 263.595 285.871 271.591 280.361C279.586 274.85 290.538 276.863 296.051 284.861C312.759 309.103 337.518 328.815 366.084 341.426C364.741 262.572 354.852 246.187 297.403 246.187C234.053 246.187 228.536 266.108 228.536 367.753Z" fill="#F19C7D"/>
<path d="M230.451 102.097C230.451 139.018 260.486 169.056 297.402 169.056C334.314 169.056 364.343 139.018 364.343 102.097C364.343 65.1954 334.312 35.1714 297.402 35.1714C260.486 35.1714 230.451 65.1936 230.451 102.097Z" fill="#F19C7D"/>
<path d="M767.185 682.28C761.278 674.572 750.236 673.114 742.53 679.021C714.82 700.264 676.39 713.376 607.175 720.961C606.813 702.735 606.012 680.883 604.562 660.48C603.563 646.438 602.254 633.098 600.566 622.114C599.326 614.045 597.883 607.236 596.205 602.379C582.733 563.383 554.931 530.459 543.328 517.836V191.626C552.425 190.952 559.602 183.374 559.602 174.107C559.602 164.396 551.729 156.521 542.016 156.521H509.467C499.755 156.521 491.881 164.396 491.881 174.107C491.881 183.376 499.058 190.954 508.155 191.626V224.21C496.633 244.673 477.934 253.986 463.91 258.193C438.778 265.728 408.969 263.197 386.283 251.893C366.939 215.742 328.739 211.015 297.398 211.015C265.412 211.015 226.269 215.917 207.331 254.143C194.332 280.38 193.361 316.16 193.361 367.753C193.361 429.66 201.185 475.785 232.437 499.47L213.397 614.54L206.331 657.246L194.307 729.907H46.769C37.0565 729.907 29.1833 737.782 29.1833 747.493C29.1833 757.203 37.0565 765.078 46.769 765.078H209.164C209.19 765.078 209.218 765.082 209.245 765.082C209.269 765.082 209.294 765.078 209.319 765.078H348.224C384.489 765.078 417.45 764.844 447.529 764.331C449.905 771.026 453.513 776.774 458.397 781.667C474.514 797.821 501.485 799.998 525.743 799.998C550 799.998 576.971 797.821 593.089 781.668C599.789 774.954 604.092 766.629 606.097 756.456C686.49 748.143 730.046 732.907 763.928 706.933C771.636 701.026 773.094 689.986 767.185 682.28ZM572.246 741.856C572.269 752.742 569.202 755.816 568.195 756.825C560.209 764.828 534.268 764.828 525.743 764.828C517.219 764.828 491.277 764.828 483.293 756.825C482.285 755.816 479.218 752.744 479.241 741.856C479.359 685.753 483.525 628.336 488.523 613.864C493.367 599.84 500.653 586.52 508.157 575.032V653.64C508.157 663.352 516.03 671.225 525.743 671.225C535.455 671.225 543.328 663.352 543.328 653.64V574.981C550.818 586.455 558.097 599.783 562.963 613.864C567.961 628.336 572.127 685.753 572.246 741.856ZM433.478 297.695C447.235 297.695 461.001 295.784 474.016 291.88C486.734 288.065 498.158 282.526 508.157 275.46V336.378C481.441 354.129 446.706 360.548 409.584 354.428C406.839 353.976 404.11 353.454 401.394 352.875C401.252 329.898 400.637 310.304 398.389 293.475C409.764 296.26 421.616 297.695 433.478 297.695ZM401.101 388.641C402.024 388.806 402.944 388.981 403.869 389.134C414.957 390.961 425.898 391.863 436.612 391.863C462.281 391.863 486.579 386.656 508.159 376.579V517.838C496.556 530.461 468.756 563.385 455.282 602.381C454.399 604.936 453.585 608.049 452.827 611.576C450.458 622.611 448.679 637.925 447.367 654.61C445.387 679.76 444.465 707.963 444.177 729.216C415.92 729.678 385.005 729.896 351.129 729.907L354.124 655.257L355.674 616.65L360.316 500.964C389.533 480.393 399.268 441.305 401.101 388.641ZM366.082 341.425C337.518 328.815 312.757 309.101 296.049 284.861C290.538 276.863 279.586 274.851 271.589 280.361C263.593 285.872 261.578 296.823 267.089 304.819C290.199 338.348 325.739 364.705 366.165 379.279C365.152 435.579 356.409 461.926 338.105 473.617C335.861 474.287 333.807 475.388 332.035 476.83C322.635 480.894 311.152 482.171 297.4 482.171C283.748 482.171 272.33 480.913 262.969 476.919C261.138 475.398 258.986 474.229 256.589 473.547C237.155 461.047 228.534 431.935 228.534 367.753C228.534 266.108 234.051 246.187 297.4 246.187C354.851 246.187 364.739 262.571 366.082 341.425ZM245.369 636.771L251.959 596.95L265.652 514.187C275.034 516.266 285.568 517.342 297.4 517.342C307.336 517.342 316.352 516.58 324.545 515.107L321.172 599.163L319.672 636.532L315.925 729.905H229.955L245.369 636.771Z" fill="black"/>
<path d="M562.963 613.865C558.097 599.782 550.818 586.456 543.328 574.981V653.64C543.328 663.352 535.455 671.226 525.743 671.226C516.03 671.226 508.157 663.352 508.157 653.64V575.032C500.653 586.521 493.369 599.84 488.523 613.865C483.523 628.338 479.359 685.753 479.241 741.857C479.218 752.742 482.283 755.816 483.293 756.826C491.277 764.829 517.219 764.829 525.743 764.829C534.267 764.829 560.209 764.829 568.195 756.826C569.202 755.816 572.269 752.744 572.246 741.857C572.127 685.753 567.961 628.336 562.963 613.865Z" fill="#F7CF40"/>
<path d="M297.402 204.228C353.707 204.228 399.515 158.412 399.515 102.097C399.515 45.8001 353.707 0 297.402 0C241.091 0 195.28 45.8001 195.28 102.097C195.28 158.412 241.091 204.228 297.402 204.228ZM364.343 102.097C364.343 139.018 334.312 169.056 297.402 169.056C260.486 169.056 230.451 139.018 230.451 102.097C230.451 65.1953 260.486 35.1713 297.402 35.1713C334.314 35.1713 364.343 65.1936 364.343 102.097Z" fill="black"/>
</svg>
