<svg width="17" height="18" viewBox="0 0 17 18" fill="none" xmlns="http://www.w3.org/2000/svg">
<path d="M11.1572 1.14404C11.4077 1.04182 11.6841 1.18612 11.7752 1.46636L12.5371 3.80804H11.0673C10.8682 3.17987 10.3344 2.72917 9.70506 2.72917C9.07575 2.72917 8.54188 3.18014 8.34328 3.80804H4.61584L11.1572 1.14404Z" fill="#F9EBB2"/>
<path d="M10.5355 3.80804H8.87463C9.04166 3.48734 9.34921 3.2686 9.70496 3.2686C10.0607 3.2686 10.3685 3.48707 10.5355 3.80804Z" fill="#F76D57"/>
<path d="M13.6731 2.296C13.5461 2.16897 13.3497 2.18812 13.3482 2.18812C13.3314 2.18973 13.0351 2.22426 12.5526 2.27928L13.0503 3.80804H13.8026V2.72917C13.8026 2.52769 13.7592 2.38177 13.6731 2.296Z" fill="#506C7F"/>
<path d="M1.42786 3.87493C1.52933 3.8342 1.63731 3.80804 1.75131 3.80804H3.20661L4.73736 3.18472C3.44619 3.33603 2.35267 3.46496 1.77806 3.5367C1.61441 3.5572 1.50354 3.69988 1.42786 3.87493Z" fill="#506C7F"/>
<path d="M14.7666 16.7545C14.7666 17.0525 14.5509 17.2939 14.2846 17.2939H1.75133C1.48524 17.2939 1.26929 17.0525 1.26929 16.7545V4.88691C1.26929 4.58914 1.48524 4.34747 1.75133 4.34747H14.2846C14.5509 4.34747 14.7666 4.58914 14.7666 4.88691V9.20238H10.9102C10.6439 9.20238 10.4282 9.44378 10.4282 9.74182V11.8996C10.4282 12.1976 10.6439 12.439 10.9102 12.439H14.7666V16.7545Z" fill="#45AAB8"/>
<path d="M15.7308 11.6298C15.7308 11.779 15.623 11.8996 15.4897 11.8996H11.1513C11.018 11.8996 10.9103 11.779 10.9103 11.6298V10.0115C10.9103 9.86238 11.018 9.74182 11.1513 9.74182H15.4897C15.623 9.74182 15.7308 9.86238 15.7308 10.0115V11.6298Z" fill="#B4CCB9"/>
<path d="M15.7307 9.20245H15.2486V4.88698C15.2486 4.29063 14.8174 3.80811 14.2845 3.80811V2.72924C14.2845 2.36728 14.1872 2.08596 13.9941 1.89365C13.7082 1.60802 13.3347 1.64821 13.2961 1.65199C13.2787 1.65361 12.9384 1.69298 12.3828 1.75691L12.2284 1.2822C12.0461 0.721732 11.4935 0.433135 10.9926 0.637311L6.60334 2.42473C4.53149 2.66531 2.57004 2.89565 1.72477 3.0003C1.0164 3.0885 0.80213 4.05301 0.787187 4.60917C0.786464 4.64504 0.787187 16.7545 0.787187 16.7545C0.787187 17.3509 1.21838 17.8334 1.75128 17.8334H14.2845C14.8174 17.8334 15.2486 17.3509 15.2486 16.7545V12.4391H15.7307C15.997 12.4391 16.2127 12.1977 16.2127 11.8996V9.74189C16.2127 9.44385 15.997 9.20245 15.7307 9.20245ZM13.3482 2.18818C13.3496 2.18818 13.5458 2.1693 13.6731 2.29607C13.7591 2.38184 13.8025 2.52776 13.8025 2.72924V3.80811H13.0502L12.5528 2.27935C13.0351 2.22433 13.3313 2.1898 13.3482 2.18818ZM11.1572 1.14411C11.4077 1.04189 11.6841 1.18619 11.7752 1.46642L12.5371 3.80811H11.0673C10.8683 3.17994 10.3344 2.72924 9.70507 2.72924C9.07576 2.72924 8.54189 3.18021 8.34329 3.80811H4.61585L11.1572 1.14411ZM10.5354 3.80811H8.8745C9.04153 3.48741 9.34908 3.26867 9.70483 3.26867C10.0606 3.26867 10.3684 3.48714 10.5354 3.80811ZM1.77804 3.53677C2.35288 3.46503 3.44616 3.3361 4.73733 3.18479L3.20683 3.80811H1.75128C1.63704 3.80811 1.52906 3.83454 1.42759 3.875C1.50351 3.69995 1.61438 3.55727 1.77804 3.53677ZM14.7666 16.7545C14.7666 17.0526 14.5509 17.294 14.2845 17.294H1.75128C1.48519 17.294 1.26923 17.0526 1.26923 16.7545V4.88698C1.26923 4.58921 1.48519 4.34754 1.75128 4.34754H14.2845C14.5509 4.34754 14.7666 4.58921 14.7666 4.88698V9.20245H10.9102C10.6439 9.20245 10.4281 9.44385 10.4281 9.74189V11.8996C10.4281 12.1977 10.6439 12.4391 10.9102 12.4391H14.7666V16.7545ZM15.7307 11.6299C15.7307 11.7791 15.6229 11.8996 15.4896 11.8996H11.1512C11.0179 11.8996 10.9102 11.7791 10.9102 11.6299V10.0116C10.9102 9.86245 11.0179 9.74189 11.1512 9.74189H15.4896C15.6229 9.74189 15.7307 9.86245 15.7307 10.0116V11.6299Z" fill="#394240"/>
<path d="M11.8744 11.3601C12.1406 11.3601 12.3564 11.1186 12.3564 10.8207C12.3564 10.5228 12.1406 10.2813 11.8744 10.2813C11.6082 10.2813 11.3923 10.5228 11.3923 10.8207C11.3923 11.1186 11.6082 11.3601 11.8744 11.3601Z" fill="#394240"/>
<path d="M13.5615 5.96578H14.0435C14.1768 5.96578 14.2845 5.84522 14.2845 5.69606C14.2845 5.54691 14.1768 5.42635 14.0435 5.42635H13.5615C13.4282 5.42635 13.3204 5.54691 13.3204 5.69606C13.3204 5.84522 13.4282 5.96578 13.5615 5.96578Z" fill="#394240"/>
<path d="M12.1154 5.96578H12.5975C12.7307 5.96578 12.8385 5.84522 12.8385 5.69606C12.8385 5.54691 12.7307 5.42635 12.5975 5.42635H12.1154C11.9821 5.42635 11.8744 5.54691 11.8744 5.69606C11.8744 5.84522 11.9821 5.96578 12.1154 5.96578Z" fill="#394240"/>
<path d="M10.6692 5.96578H11.1513C11.2846 5.96578 11.3923 5.84522 11.3923 5.69606C11.3923 5.54691 11.2846 5.42635 11.1513 5.42635H10.6692C10.536 5.42635 10.4282 5.54691 10.4282 5.69606C10.4282 5.84522 10.536 5.96578 10.6692 5.96578Z" fill="#394240"/>
<path d="M9.70513 5.42635H9.22308C9.08979 5.42635 8.98206 5.54691 8.98206 5.69606C8.98206 5.84522 9.08979 5.96578 9.22308 5.96578H9.70513C9.83841 5.96578 9.94615 5.84522 9.94615 5.69606C9.94615 5.54691 9.83841 5.42635 9.70513 5.42635Z" fill="#394240"/>
<path d="M8.25896 5.42635H7.77691C7.64363 5.42635 7.53589 5.54691 7.53589 5.69606C7.53589 5.84522 7.64363 5.96578 7.77691 5.96578H8.25896C8.39225 5.96578 8.49998 5.84522 8.49998 5.69606C8.49998 5.54691 8.39225 5.42635 8.25896 5.42635Z" fill="#394240"/>
<path d="M6.81279 5.42635H6.33075C6.19746 5.42635 6.08972 5.54691 6.08972 5.69606C6.08972 5.84522 6.19746 5.96578 6.33075 5.96578H6.81279C6.94608 5.96578 7.05382 5.84522 7.05382 5.69606C7.05382 5.54691 6.94608 5.42635 6.81279 5.42635Z" fill="#394240"/>
<path d="M5.36675 5.42635H4.8847C4.75166 5.42635 4.64368 5.54691 4.64368 5.69606C4.64368 5.84522 4.75141 5.96578 4.8847 5.96578H5.36675C5.50003 5.96578 5.60777 5.84522 5.60777 5.69606C5.60777 5.54691 5.50003 5.42635 5.36675 5.42635Z" fill="#394240"/>
<path d="M3.92058 5.42635H3.43853C3.30525 5.42635 3.19751 5.54691 3.19751 5.69606C3.19751 5.84522 3.30525 5.96578 3.43853 5.96578H3.92058C4.05387 5.96578 4.16161 5.84522 4.16161 5.69606C4.16161 5.54691 4.05387 5.42635 3.92058 5.42635Z" fill="#394240"/>
<path d="M2.47441 5.42635H1.99237C1.85908 5.42635 1.75134 5.54691 1.75134 5.69606C1.75134 5.84522 1.85908 5.96578 1.99237 5.96578H2.47441C2.6077 5.96578 2.71544 5.84522 2.71544 5.69606C2.71544 5.54691 2.6077 5.42635 2.47441 5.42635Z" fill="#394240"/>
<path d="M13.5615 16.215H14.0435C14.1768 16.215 14.2845 16.0945 14.2845 15.9453C14.2845 15.7962 14.1768 15.6756 14.0435 15.6756H13.5615C13.4282 15.6756 13.3204 15.7962 13.3204 15.9453C13.3204 16.0945 13.4282 16.215 13.5615 16.215Z" fill="#394240"/>
<path d="M12.1154 16.215H12.5975C12.7307 16.215 12.8385 16.0945 12.8385 15.9453C12.8385 15.7962 12.7307 15.6756 12.5975 15.6756H12.1154C11.9821 15.6756 11.8744 15.7962 11.8744 15.9453C11.8744 16.0945 11.9821 16.215 12.1154 16.215Z" fill="#394240"/>
<path d="M10.4282 15.9453C10.4282 16.0945 10.536 16.215 10.6692 16.215H11.1513C11.2846 16.215 11.3923 16.0945 11.3923 15.9453C11.3923 15.7962 11.2846 15.6756 11.1513 15.6756H10.6692C10.536 15.6756 10.4282 15.7962 10.4282 15.9453Z" fill="#394240"/>
<path d="M9.70513 15.6756H9.22308C9.08979 15.6756 8.98206 15.7962 8.98206 15.9453C8.98206 16.0945 9.08979 16.215 9.22308 16.215H9.70513C9.83841 16.215 9.94615 16.0945 9.94615 15.9453C9.94615 15.7962 9.83841 15.6756 9.70513 15.6756Z" fill="#394240"/>
<path d="M8.25896 15.6756H7.77691C7.64363 15.6756 7.53589 15.7962 7.53589 15.9453C7.53589 16.0945 7.64363 16.215 7.77691 16.215H8.25896C8.39225 16.215 8.49998 16.0945 8.49998 15.9453C8.49998 15.7962 8.39225 15.6756 8.25896 15.6756Z" fill="#394240"/>
<path d="M6.81279 15.6756H6.33075C6.19746 15.6756 6.08972 15.7962 6.08972 15.9453C6.08972 16.0945 6.19746 16.215 6.33075 16.215H6.81279C6.94608 16.215 7.05382 16.0945 7.05382 15.9453C7.05382 15.7962 6.94608 15.6756 6.81279 15.6756Z" fill="#394240"/>
<path d="M5.36675 15.6756H4.8847C4.75166 15.6756 4.64368 15.7962 4.64368 15.9453C4.64368 16.0945 4.75141 16.215 4.8847 16.215H5.36675C5.50003 16.215 5.60777 16.0945 5.60777 15.9453C5.60777 15.7962 5.50003 15.6756 5.36675 15.6756Z" fill="#394240"/>
<path d="M3.92058 15.6756H3.43853C3.30525 15.6756 3.19751 15.7962 3.19751 15.9453C3.19751 16.0945 3.30525 16.215 3.43853 16.215H3.92058C4.05387 16.215 4.16161 16.0945 4.16161 15.9453C4.16161 15.7962 4.05387 15.6756 3.92058 15.6756Z" fill="#394240"/>
<path d="M2.47441 15.6756H1.99237C1.85908 15.6756 1.75134 15.7962 1.75134 15.9453C1.75134 16.0945 1.85908 16.215 1.99237 16.215H2.47441C2.6077 16.215 2.71544 16.0945 2.71544 15.9453C2.71544 15.7962 2.6077 15.6756 2.47441 15.6756Z" fill="#394240"/>
</svg>
