<svg width="21" height="21" viewBox="0 0 21 21" fill="none" xmlns="http://www.w3.org/2000/svg">
<path fill-rule="evenodd" clip-rule="evenodd" d="M0.125 10.2885V10.3443C0.125 11.4831 0.135579 12.0228 0.428394 13.1615C0.56951 13.7021 1.00695 14.9171 1.25831 15.3496C1.33064 15.4745 1.41709 15.6199 1.48941 15.744C2.80885 18.0534 5.19282 19.8117 7.77348 20.4249C8.07688 20.494 8.45177 20.6119 8.77281 20.5073C9.40342 20.3106 9.49603 19.3827 8.95185 19.0398C8.71372 18.8909 8.45175 18.8837 8.16247 18.8146C6.6878 18.4512 5.29603 17.6616 4.25619 16.6168C4.1627 16.5229 4.09743 16.4574 4.00129 16.3643C2.74007 15.1077 1.7646 12.7361 1.7646 10.9566C1.7646 10.012 1.77517 9.55464 1.9992 8.64096L2.37494 7.48453C2.43315 7.34628 2.46049 7.25242 2.51958 7.12126C3.44654 5.12376 5.16905 3.50376 7.23904 2.7558C7.37751 2.70706 7.45336 2.6662 7.61123 2.62101C9.85409 1.9599 12.283 2.14344 14.2675 3.33715C14.4368 3.43818 14.5568 3.52059 14.7358 3.61453C14.2331 4.56631 13.2479 5.15472 15.1945 4.89861C15.4564 4.86405 15.7871 4.85697 16.087 4.81531C17.5819 4.60085 17.7609 4.93321 17.3614 3.44793L16.9311 1.8802C16.6929 0.945253 16.528 1.00724 16.1002 1.65151C15.9732 1.84913 15.8215 2.03617 15.7112 2.24C15.5631 2.20544 15.3355 2.03268 15.1874 1.94229C13.875 1.17041 12.2345 0.636743 10.6328 0.592433C10.3779 0.585343 10.1777 0.51978 9.86106 0.56409C8.91382 0.696134 8.88302 0.57482 7.63944 0.883218C7.1914 0.993994 6.7742 1.14649 6.38172 1.30512C4.84532 1.92546 4.00393 2.56511 2.86707 3.70388L2.09534 4.61497C1.08283 5.90971 0.125 8.18025 0.125 10.2885Z" fill="#3A3A3A"/>
<path fill-rule="evenodd" clip-rule="evenodd" d="M8.95171 11.3092L10.5154 12.0917C10.7809 12.2238 11.0049 12.3584 11.2836 12.5002L14.3705 14.1106C14.5672 14.2107 14.9667 14.449 15.2049 14.449C15.8417 14.449 16.235 13.5221 15.3972 13.1136C14.4984 12.6731 13.4127 12.0573 12.4963 11.5974L10.2817 10.4444V5.18558C10.2817 4.8435 10.3919 4.08496 9.61664 4.08496C9.31324 4.08496 9.12719 4.26833 9.03106 4.4757C8.88642 4.7841 8.95171 6.9102 8.95171 7.34267C8.95171 8.66488 8.95171 9.98695 8.95171 11.3092Z" fill="#3A3A3A"/>
<path fill-rule="evenodd" clip-rule="evenodd" d="M17.8989 13.8607C17.8989 14.9268 19.2017 15.0312 19.5086 14.1796C19.6806 13.6948 19.9046 13.2208 19.4945 12.8087C19.1055 12.4206 18.4299 12.4967 18.175 12.9991C18.1062 13.1303 17.8989 13.6843 17.8989 13.8607Z" fill="#3A3A3A"/>
<path fill-rule="evenodd" clip-rule="evenodd" d="M10.9844 19.6282C10.9844 19.9056 10.9941 20.0785 11.1872 20.2894C11.6044 20.7325 12.4996 20.4694 12.7378 20.3312C13.5439 19.85 13.1576 18.618 12.1177 18.8041C11.9105 18.8422 11.4977 18.922 11.3522 19.016C11.1802 19.1267 10.9844 19.3615 10.9844 19.6282Z" fill="#3A3A3A"/>
<path fill-rule="evenodd" clip-rule="evenodd" d="M16.2969 16.6063C16.2969 17.1912 16.8269 17.5962 17.4028 17.4057C17.6718 17.3162 17.7883 17.1255 17.947 16.9314C18.2813 16.5229 18.4841 16.0348 18.0466 15.5952C17.7609 15.3081 17.3719 15.2912 17.027 15.495C16.8242 15.6129 16.2969 16.2536 16.2969 16.6063Z" fill="#3A3A3A"/>
<path fill-rule="evenodd" clip-rule="evenodd" d="M18.8775 8.56159C19.2806 8.56159 19.6564 8.20787 19.6564 7.89326C19.6564 6.46736 18.6359 5.9994 18.0432 6.66759C17.5749 7.19754 18.1261 8.19812 18.2778 8.33637C18.4295 8.47461 18.6015 8.56159 18.8775 8.56159Z" fill="#3A3A3A"/>
<path fill-rule="evenodd" clip-rule="evenodd" d="M18.4844 10.3259C18.4844 10.963 18.4747 11.6623 19.384 11.6623C19.773 11.6623 20.1248 11.3123 20.1248 10.9143V10.2079C20.1248 9.23222 18.4844 9.15252 18.4844 10.3259Z" fill="#3A3A3A"/>
<path fill-rule="evenodd" clip-rule="evenodd" d="M13.916 18.5692C13.916 18.8909 13.9778 19.1505 14.305 19.3552C14.8527 19.6973 16.0239 19.0158 16.0239 18.3751C16.0239 17.6449 15.3149 17.3055 14.7495 17.6449C14.6155 17.7246 14.5122 17.7902 14.3843 17.8664C14.1568 18.0011 13.916 18.2058 13.916 18.5692Z" fill="#3A3A3A"/>
</svg>
