<svg width="23" height="24" viewBox="0 0 23 24" fill="none" xmlns="http://www.w3.org/2000/svg">
<path fill-rule="evenodd" clip-rule="evenodd" d="M0.125 11.5392V11.6022C0.125 12.8872 0.136994 13.4961 0.468994 14.7811C0.628994 15.3911 1.12497 16.7621 1.40997 17.2501C1.49197 17.3911 1.59 17.5552 1.672 17.6952C3.168 20.3012 5.871 22.2852 8.797 22.9772C9.141 23.0552 9.56605 23.1882 9.93005 23.0702C10.6451 22.8482 10.7501 21.8012 10.1331 21.4142C9.86306 21.2462 9.56604 21.238 9.23804 21.16C7.56604 20.75 5.98802 19.8591 4.80902 18.6801C4.70302 18.5741 4.62902 18.5002 4.52002 18.3952C3.09002 16.9772 1.98401 14.3011 1.98401 12.2931C1.98401 11.2271 1.996 10.7111 2.25 9.68006L2.67603 8.37513C2.74203 8.21913 2.77303 8.11322 2.84003 7.96522C3.89103 5.71122 5.84404 3.88319 8.19104 3.03919C8.34804 2.98419 8.43404 2.93809 8.61304 2.88709C11.156 2.14109 13.91 2.3482 16.16 3.6952C16.352 3.8092 16.488 3.90219 16.691 4.00819C16.121 5.08219 15.0041 5.74616 17.2111 5.45716C17.5081 5.41816 17.883 5.41017 18.223 5.36317C19.918 5.12117 20.121 5.4962 19.668 3.8202L19.1801 2.05116C18.9101 0.996157 18.723 1.0661 18.238 1.7931C18.094 2.0161 17.922 2.22716 17.797 2.45716C17.629 2.41816 17.371 2.22323 17.203 2.12123C15.715 1.25023 13.8549 0.648032 12.0389 0.598032C11.7499 0.590032 11.5229 0.51605 11.1639 0.56605C10.0899 0.71505 10.055 0.578157 8.64502 0.926157C8.13702 1.05116 7.66399 1.22323 7.21899 1.40223C5.47699 2.10223 4.52301 2.82402 3.23401 4.10902L2.35901 5.13709C1.21101 6.59809 0.125 9.16019 0.125 11.5392Z" fill="#3A3A3A"/>
<path fill-rule="evenodd" clip-rule="evenodd" d="M10.1329 12.6909L11.9058 13.574C12.2068 13.723 12.4608 13.8749 12.7768 14.0349L16.2768 15.8521C16.4998 15.9651 16.9528 16.2339 17.2228 16.2339C17.9448 16.2339 18.3909 15.1881 17.4409 14.7271C16.4219 14.2301 15.1908 13.5351 14.1518 13.0161L11.6408 11.7151V5.78101C11.6408 5.39501 11.7658 4.53906 10.8868 4.53906C10.5428 4.53906 10.3318 4.74598 10.2228 4.97998C10.0588 5.32798 10.1329 7.72709 10.1329 8.21509C10.1329 9.70709 10.1329 11.1989 10.1329 12.6909Z" fill="#3A3A3A"/>
<path fill-rule="evenodd" clip-rule="evenodd" d="M20.2773 15.5703C20.2773 16.7733 21.7544 16.8912 22.1024 15.9302C22.2974 15.3832 22.5514 14.8483 22.0864 14.3833C21.6454 13.9453 20.8793 14.0312 20.5903 14.5982C20.5123 14.7462 20.2773 15.3713 20.2773 15.5703Z" fill="#3A3A3A"/>
<path fill-rule="evenodd" clip-rule="evenodd" d="M12.4375 22.0783C12.4375 22.3913 12.4485 22.5864 12.6675 22.8244C13.1405 23.3244 14.1555 23.0275 14.4255 22.8715C15.3395 22.3285 14.9015 20.9384 13.7225 21.1484C13.4875 21.1914 13.0195 21.2814 12.8545 21.3874C12.6595 21.5124 12.4375 21.7773 12.4375 22.0783Z" fill="#3A3A3A"/>
<path fill-rule="evenodd" clip-rule="evenodd" d="M18.4609 18.6679C18.4609 19.3279 19.0618 19.785 19.7148 19.57C20.0198 19.469 20.1519 19.2538 20.3319 19.0348C20.7109 18.5738 20.9408 18.023 20.4448 17.527C20.1208 17.203 19.6798 17.184 19.2888 17.414C19.0588 17.547 18.4609 18.2699 18.4609 18.6679Z" fill="#3A3A3A"/>
<path fill-rule="evenodd" clip-rule="evenodd" d="M21.3869 9.59032C21.8439 9.59032 22.27 9.19117 22.27 8.83617C22.27 7.22717 21.113 6.69911 20.441 7.45311C19.91 8.05111 20.535 9.18017 20.707 9.33617C20.879 9.49217 21.0739 9.59032 21.3869 9.59032Z" fill="#3A3A3A"/>
<path fill-rule="evenodd" clip-rule="evenodd" d="M20.9414 11.5814C20.9414 12.3004 20.9304 13.0895 21.9614 13.0895C22.4024 13.0895 22.8014 12.6945 22.8014 12.2455V11.4484C22.8014 10.3474 20.9414 10.2574 20.9414 11.5814Z" fill="#3A3A3A"/>
<path fill-rule="evenodd" clip-rule="evenodd" d="M15.7617 20.8835C15.7617 21.2465 15.8318 21.5395 16.2028 21.7705C16.8238 22.1565 18.1517 21.3875 18.1517 20.6645C18.1517 19.8405 17.3478 19.4576 16.7068 19.8406C16.5548 19.9306 16.4377 20.0046 16.2927 20.0906C16.0347 20.2426 15.7617 20.4735 15.7617 20.8835Z" fill="#3A3A3A"/>
</svg>
