<svg width="800" height="800" viewBox="0 0 800 800" fill="none" xmlns="http://www.w3.org/2000/svg">
<path d="M493.528 106.055V52.6094C493.528 45.2313 487.545 39.2484 480.167 39.2484H79.3312C71.9531 39.2484 65.9703 45.2313 65.9703 52.6094V106.055C65.9703 113.433 71.9531 119.416 79.3312 119.416H25.8875C18.5094 119.416 12.5266 125.398 12.5266 132.777V186.222C12.5266 193.6 18.5094 199.583 25.8875 199.583H52.6094C45.2312 199.583 39.2484 205.566 39.2484 212.944V266.389C39.2484 273.767 45.2312 279.75 52.6094 279.75H25.8875C18.5094 279.75 12.5266 285.733 12.5266 293.111V346.556C12.5266 353.934 18.5094 359.917 25.8875 359.917H79.3328C71.9547 359.917 65.9719 365.9 65.9719 373.278V426.723C65.9719 434.102 71.9547 440.084 79.3328 440.084H25.8875C18.5094 440.084 12.5266 446.067 12.5266 453.445V506.891C12.5266 514.269 18.5094 520.252 25.8875 520.252H52.6094C45.2312 520.252 39.2484 526.234 39.2484 533.613V587.058C39.2484 594.436 45.2312 600.419 52.6094 600.419H25.8875C18.5094 600.419 12.5266 606.402 12.5266 613.78V667.225C12.5266 674.603 18.5094 680.586 25.8875 680.586H79.3328C71.9547 680.586 65.9719 686.569 65.9719 693.947V747.392C65.9719 754.77 71.9547 760.753 79.3328 760.753H480.167C487.545 760.753 493.528 754.77 493.528 747.392V373.278C493.528 365.9 487.545 359.917 480.167 359.917H426.722C434.1 359.917 440.083 353.934 440.083 346.556V293.111C440.083 285.733 434.1 279.75 426.722 279.75H453.444C460.822 279.75 466.805 273.767 466.805 266.389V212.944C466.805 205.566 460.822 199.583 453.444 199.583H426.722C434.1 199.583 440.083 193.6 440.083 186.222V132.777C440.083 125.398 434.1 119.416 426.722 119.416H480.167C487.545 119.416 493.528 113.433 493.528 106.055Z" fill="#FFDC64"/>
<path d="M480.167 359.917H426.722C434.1 359.917 440.083 353.934 440.083 346.556V331.409C367.991 376.192 319.833 455.863 319.833 546.973C319.833 636.856 366.672 715.642 437.144 760.752H480.167C487.545 760.752 493.528 754.769 493.528 747.391V373.278C493.528 365.898 487.545 359.917 480.167 359.917Z" fill="#FFC850"/>
<path d="M413.361 279.75H386.639C379.261 279.75 373.278 273.767 373.278 266.389V212.944C373.278 205.566 379.261 199.583 386.639 199.583H413.361C420.739 199.583 426.722 205.566 426.722 212.944V266.389C426.722 273.767 420.741 279.75 413.361 279.75Z" fill="#FFF082"/>
<path d="M386.639 199.583H359.917C352.539 199.583 346.556 193.6 346.556 186.222V132.777C346.556 125.398 352.539 119.416 359.917 119.416H386.639C394.017 119.416 400 125.398 400 132.777V186.222C400 193.6 394.017 199.583 386.639 199.583Z" fill="#FFF082"/>
<path d="M386.639 359.917H359.917C352.539 359.917 346.556 353.934 346.556 346.556V293.111C346.556 285.733 352.539 279.75 359.917 279.75H386.639C394.017 279.75 400 285.733 400 293.111V346.556C400 353.934 394.017 359.917 386.639 359.917Z" fill="#FFF082"/>
<path d="M199.583 119.416H253.028C245.65 119.416 239.667 113.433 239.667 106.055V52.6094C239.667 45.2313 245.65 39.2484 253.028 39.2484H79.3312C71.9531 39.2484 65.9703 45.2313 65.9703 52.6094V106.055C65.9703 113.433 71.9531 119.416 79.3312 119.416H25.8875C18.5094 119.416 12.5266 125.398 12.5266 132.777V186.222C12.5266 193.6 18.5094 199.583 25.8875 199.583H52.6094C45.2312 199.583 39.2484 205.566 39.2484 212.944V266.389C39.2484 273.767 45.2312 279.75 52.6094 279.75H25.8875C18.5094 279.75 12.5266 285.733 12.5266 293.111V346.556C12.5266 353.934 18.5094 359.917 25.8875 359.917H79.3328C71.9547 359.917 65.9719 365.9 65.9719 373.278V426.723C65.9719 434.102 71.9547 440.084 79.3328 440.084H25.8875C18.5094 440.084 12.5266 446.067 12.5266 453.445V506.891C12.5266 514.269 18.5094 520.252 25.8875 520.252H52.6094C45.2312 520.252 39.2484 526.234 39.2484 533.613V587.058C39.2484 594.436 45.2312 600.419 52.6094 600.419H25.8875C18.5094 600.419 12.5266 606.402 12.5266 613.78V667.225C12.5266 674.603 18.5094 680.586 25.8875 680.586H79.3328C71.9547 680.586 65.9719 686.569 65.9719 693.947V747.392C65.9719 754.77 71.9547 760.753 79.3328 760.753H253.028C245.65 760.753 239.667 754.77 239.667 747.392V693.947C239.667 686.569 245.65 680.586 253.028 680.586H199.583C192.205 680.586 186.222 674.603 186.222 667.225V613.78C186.222 606.402 192.205 600.419 199.583 600.419H226.305C218.927 600.419 212.944 594.436 212.944 587.058V533.613C212.944 526.234 218.927 520.252 226.305 520.252H199.583C192.205 520.252 186.222 514.269 186.222 506.891V453.445C186.222 446.067 192.205 440.084 199.583 440.084H253.028C245.65 440.084 239.667 434.102 239.667 426.723V373.278C239.667 365.9 245.65 359.917 253.028 359.917H199.583C192.205 359.917 186.222 353.934 186.222 346.556V293.111C186.222 285.733 192.205 279.75 199.583 279.75H226.305C218.927 279.75 212.944 273.767 212.944 266.389V212.944C212.944 205.566 218.927 199.583 226.305 199.583H199.583C192.205 199.583 186.222 193.6 186.222 186.222V132.777C186.222 125.398 192.203 119.416 199.583 119.416Z" fill="#FFC850"/>
<path d="M440.083 119.416H413.361C405.983 119.416 400 113.433 400 106.055V52.6094C400 45.2313 405.983 39.2484 413.361 39.2484H440.083C447.461 39.2484 453.444 45.2313 453.444 52.6094V106.055C453.445 113.433 447.463 119.416 440.083 119.416Z" fill="#FFF082"/>
<path d="M573.695 760.752C691.762 760.752 787.473 665.04 787.473 546.973C787.473 428.907 691.762 333.195 573.695 333.195C455.629 333.195 359.917 428.907 359.917 546.973C359.917 665.04 455.629 760.752 573.695 760.752Z" fill="#FFDC64"/>
<path d="M573.695 707.308C662.246 707.308 734.03 635.524 734.03 546.973C734.03 458.423 662.246 386.639 573.695 386.639C485.145 386.639 413.361 458.423 413.361 546.973C413.361 635.524 485.145 707.308 573.695 707.308Z" fill="#FFF082"/>
<path d="M573.695 320.669C535.181 320.669 498.889 330.35 467.109 347.391H452.567C452.575 347.111 452.609 346.837 452.609 346.556V293.111C452.609 292.828 452.577 292.555 452.567 292.277H453.444C467.719 292.277 479.331 280.664 479.331 266.389V212.944C479.331 198.669 467.719 187.056 453.444 187.056H452.567C452.575 186.777 452.609 186.503 452.609 186.222V132.777C452.609 132.494 452.577 132.22 452.567 131.942H480.166C494.441 131.942 506.053 120.33 506.053 106.055V52.6094C506.053 38.3344 494.441 26.7219 480.166 26.7219H79.3312C65.0562 26.7219 53.4437 38.3344 53.4437 52.6094V106.055C53.4437 106.337 53.4766 106.611 53.4859 106.889H25.8875C11.6125 106.889 0 118.502 0 132.777V186.222C0 200.497 11.6125 212.109 25.8875 212.109H26.7641C26.7562 212.387 26.7219 212.662 26.7219 212.944V266.389C26.7219 266.672 26.7547 266.945 26.7641 267.223H25.8875C11.6125 267.223 0 278.836 0 293.111V346.556C0 360.831 11.6125 372.444 25.8875 372.444H53.4859C53.4781 372.723 53.4437 372.997 53.4437 373.278V426.723C53.4437 427.006 53.4766 427.28 53.4859 427.558H25.8875C11.6125 427.558 0 439.17 0 453.445V506.891C0 521.166 11.6125 532.778 25.8875 532.778H26.7641C26.7562 533.056 26.7219 533.331 26.7219 533.612V587.058C26.7219 587.341 26.7547 587.614 26.7641 587.892H25.8875C11.6125 587.892 0 599.505 0 613.778V667.223C0 681.498 11.6125 693.111 25.8875 693.111H53.4859C53.4781 693.389 53.4437 693.664 53.4437 693.945V747.391C53.4437 761.666 65.0562 773.278 79.3312 773.278H480.166C489.208 773.278 497.169 768.609 501.8 761.567C524.397 769.158 548.572 773.278 573.694 773.278C698.478 773.278 799.998 671.758 799.998 546.973C799.998 422.189 698.48 320.669 573.695 320.669ZM453.445 212.108C453.906 212.108 454.28 212.483 454.28 212.942V266.387C454.28 266.847 453.906 267.222 453.445 267.222H426.723H52.6094C52.1484 267.222 51.775 266.845 51.775 266.387V212.942C51.775 212.483 52.1484 212.108 52.6094 212.108H426.722H453.445ZM78.4969 52.6094C78.4969 52.15 78.8703 51.775 79.3312 51.775H480.166C480.627 51.775 481 52.1515 481 52.6094V106.055C481 106.514 480.627 106.889 480.166 106.889H426.72H79.3312C78.8703 106.889 78.4969 106.512 78.4969 106.055V52.6094ZM25.8875 187.056C25.4266 187.056 25.0531 186.68 25.0531 186.222V132.777C25.0531 132.317 25.4266 131.942 25.8875 131.942H79.3328H426.723C427.184 131.942 427.558 132.319 427.558 132.777V186.222C427.558 186.681 427.184 187.056 426.723 187.056H52.6094H25.8875ZM25.8875 347.391C25.4266 347.391 25.0531 347.014 25.0531 346.556V293.111C25.0531 292.652 25.4266 292.277 25.8875 292.277H52.6094H426.722C427.183 292.277 427.556 292.653 427.556 293.111V346.556C427.556 347.016 427.183 347.391 426.722 347.391H79.3312H25.8875ZM429.789 372.442C410.889 388.053 394.572 406.677 381.548 427.556H79.3312C78.8703 427.556 78.4969 427.18 78.4969 426.722V373.277C78.4969 372.817 78.8703 372.442 79.3312 372.442H426.722H429.789ZM25.8875 507.725C25.4266 507.725 25.0531 507.348 25.0531 506.891V453.445C25.0531 452.986 25.4266 452.611 25.8875 452.611H368.028C360.053 469.923 354.197 488.406 350.806 507.725H52.6094H25.8875ZM351.106 587.892H52.6094C52.1484 587.892 51.775 587.516 51.775 587.058V533.612C51.775 533.153 52.1484 532.778 52.6094 532.778H347.848C347.556 537.475 347.391 542.206 347.391 546.975C347.391 560.942 348.672 574.616 351.106 587.892ZM25.8875 668.058C25.4266 668.058 25.0531 667.681 25.0531 667.223V613.778C25.0531 613.319 25.4266 612.944 25.8875 612.944H357.209C363.203 632.575 371.797 651.08 382.592 668.058H79.3312H25.8875ZM79.3312 748.225C78.8703 748.225 78.4969 747.852 78.4969 747.391V693.945C78.4969 693.486 78.8703 693.111 79.3312 693.111H400C400.341 693.111 400.675 693.086 401.009 693.061C420.18 715.686 443.697 734.514 470.27 748.227L79.3312 748.225ZM573.695 748.225C462.723 748.225 372.442 657.944 372.442 546.972C372.442 436 462.723 345.719 573.695 345.719C684.667 345.719 774.948 436 774.948 546.972C774.948 657.944 684.666 748.225 573.695 748.225Z" fill="black"/>
<path d="M573.695 374.113C478.38 374.113 400.836 451.658 400.836 546.972C400.836 642.286 478.381 719.831 573.695 719.831C669.009 719.831 746.555 642.286 746.555 546.972C746.555 451.658 669.011 374.113 573.695 374.113ZM573.695 694.781C492.194 694.781 425.887 628.475 425.887 546.973C425.887 465.472 492.194 399.166 573.695 399.166C655.197 399.166 721.503 465.472 721.503 546.973C721.503 628.475 655.197 694.781 573.695 694.781Z" fill="black"/>
<path d="M520.42 651V432.818H594.142C611.259 432.818 625.25 435.908 636.116 442.087C647.054 448.195 655.151 456.469 660.406 466.909C665.662 477.349 668.29 488.997 668.29 501.852C668.29 514.707 665.662 526.391 660.406 536.902C655.222 547.413 647.196 555.794 636.33 562.044C625.463 568.223 611.543 571.312 594.568 571.312H541.727V547.875H593.716C605.435 547.875 614.845 545.851 621.947 541.803C629.05 537.754 634.199 532.286 637.395 525.396C640.662 518.436 642.295 510.588 642.295 501.852C642.295 493.116 640.662 485.304 637.395 478.415C634.199 471.526 629.014 466.128 621.841 462.222C614.668 458.244 605.151 456.256 593.29 456.256H546.841V651H520.42Z" fill="black"/>
<path d="M505 606H591" stroke="black" stroke-width="22"/>
</svg>
