<svg width="900" height="900" viewBox="0 0 900 900" fill="none" xmlns="http://www.w3.org/2000/svg">
<path d="M684.667 279.625C677.529 278.186 670.57 282.789 669.123 289.928C667.676 297.066 672.289 304.025 679.426 305.473C681.443 305.88 682.965 307.734 682.965 309.78V591.099C682.965 593.481 680.952 595.494 678.57 595.494H365.914C358.631 595.494 352.727 601.397 352.727 608.681C352.727 615.966 358.631 621.868 365.914 621.868H678.571C695.537 621.868 709.341 608.064 709.341 591.099V309.78C709.341 295.204 698.965 282.522 684.667 279.625Z" fill="black"/>
<path d="M533.207 279.011H221.429C204.463 279.011 190.659 292.815 190.659 309.78V591.099C190.659 605.276 200.294 617.553 214.09 620.957C215.152 621.219 216.214 621.346 217.26 621.346C223.183 621.346 228.569 617.325 230.053 611.315C231.797 604.245 227.48 597.098 220.411 595.354C218.731 594.941 217.035 593.344 217.035 591.099V309.78C217.035 307.398 219.048 305.385 221.43 305.385H533.209C540.491 305.385 546.396 299.482 546.396 292.198C546.396 284.913 540.49 279.011 533.207 279.011Z" fill="black"/>
<path d="M463.825 350.304C459.157 349.666 454.506 349.341 450 349.341C394.253 349.341 348.901 394.693 348.901 450.44C348.901 454.946 349.226 459.598 349.865 464.265C350.77 470.874 356.425 475.663 362.913 475.663C363.509 475.663 364.112 475.623 364.718 475.54C371.934 474.552 376.982 467.901 375.994 460.687C375.517 457.202 375.275 453.754 375.275 450.44C375.275 409.235 408.796 375.714 450 375.714C453.313 375.714 456.76 375.957 460.247 376.433C467.47 377.425 474.113 372.374 475.101 365.158C476.089 357.944 471.041 351.291 463.825 350.304Z" fill="black"/>
<path d="M435.278 550.459C440.182 551.174 445.133 551.538 450 551.538C505.747 551.538 551.099 506.186 551.099 450.44C551.099 445.569 550.735 440.616 550.021 435.718C548.968 428.511 542.271 423.526 535.067 424.576C527.86 425.629 522.872 432.323 523.925 439.53C524.458 443.171 524.727 446.84 524.727 450.44C524.727 491.644 491.206 525.165 450.002 525.165C446.408 525.165 442.737 524.896 439.092 524.363C431.885 523.308 425.189 528.298 424.138 535.505C423.087 542.712 428.071 549.406 435.278 550.459Z" fill="black"/>
<path d="M610 407.363C625.996 407.363 639.011 394.348 639.011 378.352C639.011 363.727 628.062 351.354 613.545 349.569C609.513 349.082 605.483 350.464 602.612 353.335L584.982 370.965C582.111 373.835 580.723 377.868 581.218 381.896C583.002 396.414 595.377 407.363 610 407.363Z" fill="black"/>
<path d="M256.593 251.758H309.341C316.623 251.758 322.527 245.856 322.527 238.571C322.527 231.287 316.623 225.385 309.341 225.385H256.593C249.311 225.385 243.407 231.287 243.407 238.571C243.407 245.856 249.311 251.758 256.593 251.758Z" fill="black"/>
<path d="M732.843 167.157C657.291 91.607 556.845 50 450 50C343.155 50 242.709 91.607 167.157 167.157C91.607 242.709 50 343.155 50 450C50 556.845 91.607 657.291 167.157 732.843C242.709 808.393 343.155 850 450 850C556.845 850 657.291 808.393 732.843 732.843C808.393 657.291 850 556.845 850 450C850 343.155 808.393 242.709 732.843 167.157ZM76.3736 450C76.3736 243.982 243.982 76.3736 450 76.3736C548.275 76.3736 637.793 114.533 704.564 176.787L176.787 704.564C114.533 637.793 76.3736 548.277 76.3736 450ZM450 823.626C351.725 823.626 262.207 785.467 195.436 723.213L723.213 195.436C785.467 262.207 823.626 351.725 823.626 450C823.626 656.018 656.018 823.626 450 823.626Z" fill="black"/>
</svg>
