<svg width="336" height="336" viewBox="0 0 336 336" fill="none" xmlns="http://www.w3.org/2000/svg">
<path d="M168.475 0.225098C75.95 0.225098 0.949951 75.2251 0.949951 167.75C0.949951 260.275 75.95 335.275 168.475 335.275C261 335.275 336 260.275 336 167.75C336 75.2251 261 0.225098 168.475 0.225098ZM168.475 310.275C89.9 310.275 25.95 246.35 25.95 167.75C25.95 89.1501 89.875 25.2251 168.475 25.2251C247.075 25.2251 311 89.1751 311 167.75C311 246.325 247.075 310.275 168.475 310.275Z" fill="black"/>
<path d="M168.476 143.58L213.016 99.064L216.551 95.5298L241.297 120.276L237.76 123.812L193.222 168.326L241.296 216.4L237.761 219.936L220.086 237.611L216.55 241.146L168.476 193.072L123.962 237.61L120.426 241.147L95.6797 216.401L99.2139 212.866L143.729 168.326L95.6787 120.275L99.2148 116.74L116.89 99.0649L120.425 95.5288L168.476 143.58Z" fill="#FF0000" stroke="black" stroke-width="10"/>
</svg>
