<svg width="336" height="336" viewBox="0 0 336 336" fill="none" xmlns="http://www.w3.org/2000/svg">
<path d="M167.525 0C75 0 0 75 0 167.525C0 260.05 75 335.05 167.525 335.05C260.05 335.05 335.05 260.05 335.05 167.525C335.05 75 260.05 0 167.525 0ZM167.525 310.05C88.925 310.05 25 246.1 25 167.525C25 88.95 88.925 25 167.525 25C246.1 25 310.05 88.925 310.05 167.525C310.05 246.125 246.125 310.05 167.525 310.05Z" fill="black"/>
<path d="M235.455 95.9131L254.056 112.663L258.142 116.343L254.463 120.43L151.854 234.436C148.54 238.15 143.847 240.255 138.935 240.397L138.854 240.4H138.45C133.684 240.4 129.105 238.532 125.711 235.139L80.1113 189.539L76.2217 185.65L101.674 160.198L105.562 164.085L137.738 196.238L227.688 96.3203L231.368 92.2314L235.455 95.9131Z" fill="#0FB700" stroke="black" stroke-width="11"/>
</svg>
