<svg width="157" height="196" viewBox="0 0 157 196" fill="none" xmlns="http://www.w3.org/2000/svg">
<path d="M111 0.999984C111.495 1.49498 111.495 1.49498 112 1.99998C111.934 4.47316 111.805 6.90952 111.625 9.37498C111.581 10.0414 111.537 10.7079 111.492 11.3945C111.287 14.41 111.061 17.4178 110.746 20.4241C109.892 28.6719 109.761 36.9032 109.75 45.1875C109.748 45.93 109.746 46.6725 109.744 47.4375C109.736 59.9261 110.723 72.0392 112.636 84.3901C113.266 88.9117 113.622 93.4512 114 98C110.04 98 106.08 98 102 98C101.464 96.5975 100.927 95.195 100.375 93.75C98.3562 89.2903 96.6711 86.939 92 85C83.6747 85.528 75.6453 87.5081 67.5312 89.3594C66.5051 89.5837 65.479 89.808 64.4219 90.039C63.4999 90.2474 62.5778 90.4557 61.6279 90.6704C58.7431 91.0322 56.7572 90.9241 54 90C52.5204 87.3539 51.5327 85.088 50.5625 82.25C50.271 81.431 49.9795 80.6121 49.6792 79.7683C43.8756 62.5318 40.0347 43.5335 39.5625 25.3125C39.5167 24.5797 39.471 23.8468 39.4238 23.0918C39.3359 18.8532 39.7339 17.2803 42.6875 14.168C62.7538 1.03493 87.6044 -0.871852 111 0.999984Z" fill="#030303"/>
<path d="M94.7898 91.0107C97.4254 94.5754 97.9911 97.5352 98.3633 101.828C98.445 102.577 98.5267 103.325 98.6109 104.096C98.8654 106.479 99.0888 108.864 99.3125 111.25C99.4805 112.837 99.6504 114.425 99.8223 116.012C101.973 136.41 101.973 136.41 99.125 141.062C94.7467 143.777 91.0264 143.919 86 143C81.0865 139.683 79.9431 134.303 78.8164 128.734C78.6108 127.762 78.4052 126.79 78.1934 125.789C77.7699 123.749 77.3533 121.707 76.9434 119.664C76.7365 118.697 76.5296 117.73 76.3164 116.734C76.1354 115.85 75.9544 114.965 75.7678 114.054C75.3878 113.037 75.3878 113.037 75 112C74.01 111.67 73.02 111.34 72 111C72.1818 111.897 72.3635 112.794 72.5508 113.719C73.2279 117.08 73.8979 120.442 74.5635 123.805C74.8518 125.255 75.1427 126.704 75.4365 128.152C75.8608 130.246 76.275 132.341 76.6875 134.438C76.9389 135.694 77.1902 136.951 77.4492 138.246C78.2292 143.562 78.8638 148.238 76.4375 153.188C72.2898 157.973 68.3727 161.114 62 162C60.0635 162.065 58.125 162.086 56.1875 162.062C54.7238 162.049 54.7238 162.049 53.2305 162.035C52.4944 162.024 51.7584 162.012 51 162C51.66 162.99 52.32 163.98 53 165C61.5043 166.615 67.7709 164.184 75 160C75.99 159.67 76.98 159.34 78 159C78.2901 160.048 78.2901 160.048 78.586 161.117C78.8463 162.027 79.1067 162.937 79.375 163.875C79.6302 164.78 79.8855 165.685 80.1485 166.617C80.8604 169.146 80.8604 169.146 83 171C82.7288 173.621 81.9754 175.035 80.4375 177.188C77.5514 182.834 78.9674 188.958 80 195C75.3919 195.099 70.7845 195.172 66.1756 195.22C64.609 195.24 63.0426 195.267 61.4763 195.302C59.2197 195.35 56.9641 195.373 54.707 195.391C54.011 195.411 53.315 195.432 52.5979 195.453C49.0182 195.455 47.1326 195.086 44.1043 193.112C42 191 42 191 40.625 188.812C38.1605 186.064 35.5517 186.268 32 186C32.9127 172.698 32.9127 172.698 33.5625 166.812C34.7745 153.559 35.3237 138.577 31.293 125.75C30.75 123.812 30.75 123.813 31 120C33.9495 115.942 37.4443 112.525 41 109C42.2645 107.554 43.5166 106.097 44.75 104.625C52.79 95.4148 60.6622 93.5171 72.4375 91.375C73.6525 91.1455 74.8674 90.9161 76.1192 90.6797C77.2954 90.4631 78.4717 90.2466 79.6836 90.0234C80.7515 89.8267 81.8194 89.63 82.9197 89.4272C91.0317 88.3021 91.0317 88.3021 94.7898 91.0107Z" fill="#050505"/>
<path d="M1 116C8.26 116 15.52 116 23 116C34.1443 138.289 30.9284 170.807 24 194C23 195 23 195 20.8669 195.114C19.9505 195.108 19.0341 195.103 18.0898 195.098C17.1005 195.094 16.1111 195.091 15.0918 195.088C14.0509 195.08 13.01 195.071 11.9375 195.062C10.8927 195.058 9.84793 195.053 8.77148 195.049C6.18093 195.037 3.59049 195.021 1 195C1.12286 194.295 1.24573 193.59 1.37231 192.864C1.81879 190.276 2.24453 187.686 2.66162 185.093C2.90056 183.615 3.14345 182.138 3.38916 180.661C7.13282 157.919 6.00019 138.501 1 116Z" fill="#050505"/>
<path d="M115 17C124.508 16.6779 132.903 16.7619 142 20C141.315 25.967 139.223 31.3669 137.25 37C131.023 55.2749 127.476 73.8689 124.401 92.8972C124 95 124 95 123 98C121.68 98 120.36 98 119 98C118.442 94.1272 117.891 90.2534 117.346 86.3789C117.071 84.4318 116.79 82.4854 116.51 80.539C114.617 67.0462 113.83 53.7259 113.87 40.1194C113.875 37.9083 113.87 35.6974 113.863 33.4863C113.864 32.0625 113.865 30.6387 113.867 29.2148C113.868 27.9476 113.869 26.6804 113.871 25.3747C113.983 22.446 114.318 19.8418 115 17Z" fill="#0A0A0A"/>
<path d="M103 150C104.638 150.066 104.638 150.066 106.31 150.133C109.938 150.288 113.562 150.482 117.188 150.688C118.37 150.741 119.552 150.794 120.77 150.848C130.18 151.474 130.18 151.474 133.27 154.332C135.73 158.125 135.813 160.637 135 165C133.767 167.837 132.867 169.427 130.287 171.132C127.273 172.276 124.871 172.143 121.652 172.012C120.406 171.965 119.161 171.918 117.877 171.869C116.577 171.809 115.277 171.749 113.938 171.688C112.665 171.639 111.392 171.591 110.08 171.541C106.384 171.391 102.693 171.207 99 171C97.3793 170.91 97.3793 170.91 95.7259 170.819C94.749 170.75 93.7721 170.681 92.7657 170.609C91.4919 170.522 91.4919 170.522 90.1924 170.433C87.7051 169.942 86.6004 169.343 84.8125 167.563C82.5167 163.05 81.8092 158.977 83 154C87.6346 147.494 95.8886 149.647 103 150Z" fill="#090909"/>
<path d="M95.5625 174.625C96.6534 174.66 96.6534 174.66 97.7664 174.697C99.3388 174.751 100.911 174.818 102.482 174.894C105.13 175.005 107.772 175.04 110.422 175.066C112.219 175.105 114.016 175.145 115.812 175.187C116.666 175.193 117.519 175.198 118.399 175.204C124.372 175.423 124.372 175.423 127.543 178.336C129.483 181.883 129.561 184.006 129 188C125.923 193.538 125.923 193.538 123 195C120.505 195.135 118.039 195.213 115.543 195.238C114.803 195.246 114.063 195.254 113.301 195.263C111.733 195.277 110.165 195.287 108.597 195.295C106.207 195.312 103.818 195.356 101.428 195.4C99.9037 195.411 98.3796 195.419 96.8555 195.426C96.1438 195.443 95.4322 195.461 94.699 195.479C91.0773 195.463 89.1388 195.09 86.0715 193.098C83.2742 190.265 82.7948 188.574 82.625 184.687C82.576 183.928 82.527 183.169 82.4766 182.387C83.9982 175.448 89.3282 174.278 95.5625 174.625Z" fill="#080808"/>
<path d="M103 103C107.608 102.876 112.215 102.786 116.825 102.725C118.391 102.7 119.958 102.666 121.524 102.623C123.78 102.562 126.036 102.534 128.293 102.512C128.989 102.486 129.685 102.46 130.402 102.434C134.361 102.431 135.85 102.873 138.919 105.468C139.949 106.721 139.949 106.721 141 108C141.495 108.495 141.495 108.495 142 109C142.384 113.986 142.068 116.988 139 121C135.988 122.506 132.887 122.122 129.586 122.098C128.856 122.096 128.127 122.095 127.375 122.093C125.042 122.088 122.708 122.075 120.375 122.063C118.794 122.058 117.214 122.053 115.633 122.049C111.755 122.038 107.878 122.021 104 122C103.255 115.627 102.897 109.417 103 103Z" fill="#080808"/>
<path d="M105 127C109.562 126.855 114.124 126.766 118.688 126.688C120.628 126.625 120.628 126.625 122.607 126.561C124.478 126.536 124.478 126.536 126.387 126.512C128.107 126.472 128.107 126.472 129.862 126.432C133.993 127.18 135.447 128.733 138 132C138.695 136.862 138.655 138.721 136.413 143.098C134 146 134 146 130.7 146.681C129.422 146.65 128.145 146.618 126.828 146.586C126.146 146.577 125.463 146.569 124.76 146.56C122.588 146.527 120.421 146.451 118.25 146.375C116.775 146.345 115.3 146.318 113.824 146.293C110.215 146.227 106.608 146.123 103 146C103.875 140.25 103.875 140.25 105 138C105.07 136.126 105.084 134.25 105.062 132.375C105.049 130.871 105.049 130.871 105.035 129.336C105.024 128.565 105.012 127.794 105 127Z" fill="#090909"/>
<path d="M140 40C146.039 40.549 151.921 43.5663 156 48C154.619 51.1697 153.068 53.0236 150.5 55.3125C143.265 62.3223 138.097 71.3725 133 80C132.01 79.67 131.02 79.34 130 79C131.662 69.77 133.766 60.7013 136.125 51.625C136.391 50.5962 136.656 49.5675 136.93 48.5076C137.309 47.0691 137.309 47.0691 137.695 45.6016C137.922 44.7387 138.149 43.8758 138.383 42.9868C139 41 139 41 140 40Z" fill="#111111"/>
<path d="M0 120C0.99 120.33 1.98 120.66 3 121C4.46463 125.557 5.17917 130.289 6 135C6.13535 135.758 6.2707 136.516 6.41016 137.297C9.12846 156.44 6.17088 176.533 1 195C7.93 195 14.86 195 22 195C22 195.33 22 195.66 22 196C14.74 196 7.48 196 0 196C0 170.92 0 145.84 0 120Z" fill="#F2F2F2"/>
<path d="M1 116C8.26 116 15.52 116 23 116C23 116.33 23 116.66 23 117C13.595 117.495 13.595 117.495 4 118C4 120.31 4 122.62 4 125C2.24006 121.832 1.75127 119.756 1 116Z" fill="#2C2C2C"/>
<path d="M44 13C44.66 13.33 45.32 13.66 46 14C45.3555 14.6639 44.7109 15.3277 44.0469 16.0117C41.5713 19.6259 41.3393 22.5727 41.25 26.8125C41.2204 27.5054 41.1907 28.1982 41.1602 28.9121C41.09 30.6075 41.0427 32.3037 41 34C40.67 34 40.34 34 40 34C39.8919 31.2489 39.8127 28.5021 39.75 25.75C39.7165 24.9727 39.683 24.1954 39.6484 23.3945C39.5489 17.57 39.5489 17.57 42.0156 14.4531C42.9979 13.7338 42.9979 13.7338 44 13Z" fill="#292929"/>
</svg>
