<svg width="11" height="14" viewBox="0 0 11 14" fill="none" xmlns="http://www.w3.org/2000/svg">
<path fill-rule="evenodd" clip-rule="evenodd" d="M7.51923 6.36314C7.70253 6.35558 8.27513 6.33779 8.42329 6.36879L8.42783 11.7467L7.52262 11.7542L7.51923 6.36314ZM5.05799 6.36314C5.22165 6.35482 5.83772 6.34083 5.96244 6.36993L5.96621 11.7441L5.05988 11.7535L5.05799 6.36314ZM2.62398 6.3741C2.7162 6.34084 3.39083 6.33818 3.49855 6.37333L3.50233 11.7437L2.62171 11.7527L2.62398 6.3741ZM10.0848 4.70771L0.966267 4.70166C0.950771 5.80755 0.964764 6.91911 0.965141 8.02122L0.964016 12.9939C0.962504 13.2101 1.1201 13.3972 1.3722 13.3961C3.84136 13.3855 6.36343 13.4085 8.8394 13.4116C9.10851 13.4119 9.39386 13.4203 9.66069 13.412C9.87726 13.4055 10.0768 13.2094 10.087 12.9939C10.1116 12.4667 10.0866 11.8706 10.0866 11.3358C10.0866 10.2307 10.0866 9.12598 10.0866 8.02122C10.0866 6.9278 10.1154 5.79584 10.0848 4.70771Z" fill="#778189"/>
<path fill-rule="evenodd" clip-rule="evenodd" d="M4.41595 1.74847C4.41141 1.63319 4.45527 1.43778 4.47454 1.31722C4.52745 0.990286 4.50213 0.971411 4.6193 0.971411L6.50225 0.982742C6.52531 1.04473 6.63491 1.69293 6.63 1.76777C6.23844 1.77382 4.66426 1.78966 4.41595 1.74847ZM0.139416 3.88619C0.232014 3.91453 5.28374 3.89526 5.52487 3.89564H10.5996C10.6892 3.89564 10.9016 3.91566 10.9205 3.86917C10.919 3.41449 10.9118 2.95717 10.9035 2.50249C10.8914 1.84976 10.8642 1.8252 10.2066 1.81084C9.76095 1.80102 9.30591 1.80141 8.85652 1.79612C8.41659 1.79082 7.91542 1.81462 7.48569 1.78552C7.43731 1.63396 7.3999 1.30096 7.37042 1.11879C7.33678 0.910538 7.29632 0.645987 7.23094 0.455121C7.18294 0.315657 7.16555 0.303196 7.06162 0.231007C6.9384 0.14559 6.92897 0.154661 6.75549 0.155417C6.48828 0.156173 6.21917 0.150496 5.95195 0.14785C5.42282 0.142559 4.89255 0.139904 4.36304 0.13877C4.17973 0.138015 4.17936 0.125547 4.03536 0.209452C3.73828 0.381798 3.75 0.633912 3.68121 1.05117C3.64682 1.25867 3.61545 1.52434 3.5667 1.72163C3.54175 1.82179 3.46124 1.79423 3.25223 1.79763C3.11541 1.79952 2.97935 1.80177 2.84253 1.80479C2.19246 1.81991 1.10396 1.80214 0.507551 1.84598C0.357881 1.85694 0.320467 1.89965 0.24601 1.97335C0.153034 2.06558 0.151521 2.13359 0.150009 2.29196C0.147363 2.53347 0.115605 3.75277 0.139416 3.88619Z" fill="#778189"/>
<path fill-rule="evenodd" clip-rule="evenodd" d="M5.05999 11.7537L5.96632 11.7442L5.96255 6.37009C5.83783 6.34099 5.22176 6.35499 5.05811 6.3633L5.05999 11.7537Z" fill="#F6F7F8"/>
<path fill-rule="evenodd" clip-rule="evenodd" d="M7.52268 11.7546L8.42789 11.7471L8.42335 6.36918C8.27519 6.33818 7.70259 6.35597 7.51929 6.36353L7.52268 11.7546Z" fill="#F7F8F8"/>
<path fill-rule="evenodd" clip-rule="evenodd" d="M2.62183 11.7528L3.50245 11.7438L3.49867 6.37343C3.39095 6.33828 2.71632 6.34094 2.6241 6.3742L2.62183 11.7528Z" fill="#F6F7F8"/>
<path fill-rule="evenodd" clip-rule="evenodd" d="M4.41585 1.74825C4.66417 1.78944 6.23835 1.7736 6.6299 1.76755C6.63482 1.69272 6.52522 1.04451 6.50216 0.982523L4.61921 0.971191C4.50204 0.971191 4.52736 0.990067 4.47445 1.317C4.45517 1.43756 4.41132 1.63297 4.41585 1.74825Z" fill="#F6F8F9"/>
</svg>
