<svg width="24" height="24" viewBox="0 0 24 24" fill="none" xmlns="http://www.w3.org/2000/svg">
<path fill-rule="evenodd" clip-rule="evenodd" d="M13.9261 8.91417C13.8139 9.14037 13.662 9.26046 13.4912 9.41739C12.1263 10.6851 10.3275 9.80505 11.347 8.31549C11.6845 7.33532 13.9032 5.94835 14.2824 7.52032C14.481 8.06214 14.1395 8.55121 13.9261 8.91417ZM14.2864 0.732561C12.9066 1.43482 3.49072 6.15082 1.81602 6.93812C0.357733 7.62635 -0.0532228 8.46535 0.0053469 10.0443V21.7915C-0.00259475 23.3187 1.61054 24.0035 3.16512 24H20.5107C24.6324 24 23.9574 22.784 23.9574 19.6164V12.1336C23.9574 11.0894 24.1747 9.61641 23.6278 8.75985C22.5427 7.85595 21.8598 8.04451 20.5107 8.04451C20.3241 8.14008 20.476 7.97962 20.3479 8.13655C20.3241 9.34906 20.5375 16.3392 20.196 16.8319C20.0531 17.9558 18.7457 18.411 17.5514 18.6714C15.57 19.1474 5.49997 22.3869 3.94043 21.9047C3.3319 21.7364 3.4292 21.0307 3.83621 20.7335C6.29118 18.9248 13.5885 17.7261 16.6441 16.12C17.4591 15.6299 18.1183 14.8532 18.2423 13.959C18.4518 11.1201 18.285 7.56498 18.3078 4.6639C18.3277 1.98288 18.7963 -1.5478 14.2864 0.732561Z" fill="#3A3A3A"/>
</svg>
